<?xml version="1.0" encoding="UTF-8" standalone="no"?>
<!-- Created with Inkscape (http://www.inkscape.org/) -->

<svg
   version="1.1"
   id="svg1"
   width="733.65851"
   height="218.79097"
   viewBox="0 0 733.65851 218.79097"
   sodipodi:docname="logo-kivor.svg"
   xml:space="preserve"
   inkscape:version="1.4.2 (f4327f4, 2025-05-13)"
   xmlns:inkscape="http://www.inkscape.org/namespaces/inkscape"
   xmlns:sodipodi="http://sodipodi.sourceforge.net/DTD/sodipodi-0.dtd"
   xmlns="http://www.w3.org/2000/svg"
   xmlns:svg="http://www.w3.org/2000/svg"><defs
     id="defs1" /><sodipodi:namedview
     id="namedview1"
     pagecolor="#505050"
     bordercolor="#eeeeee"
     borderopacity="1"
     inkscape:showpageshadow="0"
     inkscape:pageopacity="0"
     inkscape:pagecheckerboard="0"
     inkscape:deskcolor="#505050"
     inkscape:zoom="0.83496094"
     inkscape:cx="395.22807"
     inkscape:cy="-56.888889"
     inkscape:window-width="1920"
     inkscape:window-height="1057"
     inkscape:window-x="-8"
     inkscape:window-y="-8"
     inkscape:window-maximized="1"
     inkscape:current-layer="g1" /><g
     inkscape:groupmode="layer"
     inkscape:label="Image"
     id="g1"
     transform="translate(-372.18596,-569.05614)"><path
       style="fill:#000000;stroke-width:1.20703"
       d="m 372.32648,785.67548 c -0.70528,-2.58241 -0.73333,-2.54237 51.09353,-72.96186 19.04193,-25.87314 34.69866,-47.37281 34.7927,-47.77708 0.16256,-0.69872 -66.26001,-78.44763 -74.21416,-86.86911 -2.07979,-2.202 -3.79815,-5.13036 -3.81857,-6.50747 -0.0345,-2.3311 2.10933,-2.50382 31.07883,-2.50382 19.67283,0 32.78892,0.59191 35.66511,1.60951 3.23063,1.14298 6.97687,4.54301 12.92492,11.73043 11.92298,14.40735 40.25809,50.41193 44.77942,56.89991 l 3.81857,5.47951 v 21.52336 21.52334 l -35.22776,48.99689 c -19.37526,26.94828 -36.21515,49.41558 -37.42198,49.92733 -1.20683,0.51175 -15.8409,0.99462 -32.52018,1.07307 -26.90483,0.12654 -30.39639,-0.11531 -30.95043,-2.14401 z m 62.7447,-3.98086 c 1.17221,-1.27866 1.29311,-1.16886 0.59948,0.54445 -0.47786,1.18037 5.6802,-7.33647 13.68458,-18.92633 8.00439,-11.58983 15.02251,-20.6651 15.59584,-20.16723 0.57334,0.49788 0.76036,0.26393 0.41558,-0.5199 -0.60244,-1.36962 5.1074,-10.26142 6.67647,-10.39705 0.42004,-0.0365 0.78485,-0.5489 0.8107,-1.13907 0.0794,-1.8132 6.33951,-10.30155 7.10627,-9.6357 0.39647,0.34428 1.58398,-0.80749 2.63893,-2.55949 l 1.91809,-3.18547 -2.29114,2.72558 c -4.23574,5.03889 -2.33987,1.52399 3.04257,-5.64088 3.4424,-4.58237 4.26318,-5.3243 2.31468,-2.09235 -1.66049,2.75421 1.84938,-1.67546 7.79969,-9.84372 l 10.81877,-14.85137 0.14885,-18.39083 c 0.0846,-10.45165 -0.30923,-19.59342 -0.91225,-21.17658 -0.58358,-1.53216 -5.7587,-8.66995 -11.50027,-15.86179 -5.74154,-7.19182 -12.28729,-15.63848 -14.5461,-18.77032 -2.2588,-3.13186 -4.47357,-5.17909 -4.92171,-4.54943 -0.44814,0.62968 -0.66206,0.48861 -0.47536,-0.31342 0.18668,-0.80206 -4.12831,-7.13014 -9.58886,-14.06241 -5.46055,-6.93227 -9.92828,-12.26084 -9.92828,-11.84126 0,0.41956 -1.14942,-0.85215 -2.55425,-2.82605 -1.40484,-1.97389 -2.97698,-3.22181 -3.49363,-2.77313 -0.51667,0.44865 -1.21485,0.18942 -1.55151,-0.57587 -0.33666,-0.76538 -1.33102,-1.00398 -2.2097,-0.53023 -0.87867,0.47376 -1.92656,0.11353 -2.32863,-0.80059 -0.53381,-1.2136 -8.51425,-1.55933 -29.58159,-1.28155 l -28.85055,0.3804 5.96781,7.1538 c 3.2823,3.93457 5.60963,6.18803 5.17186,5.00764 -0.43778,-1.18037 0.37676,-0.21461 1.81008,2.14615 1.43333,2.36074 3.05582,4.29227 3.60554,4.29227 0.54974,0 2.42003,2.25344 4.15621,5.00766 1.73621,2.75421 2.84593,4.04188 2.46608,2.86151 -0.37985,-1.18039 0.46179,-0.21463 1.8703,2.14614 1.40852,2.36074 2.98605,4.29226 3.50562,4.29226 0.51959,0 2.20379,1.93153 3.74269,4.29229 1.53889,2.36074 2.49332,3.3265 2.12096,2.14613 -0.37237,-1.18039 0.70336,0.10723 2.39052,2.86151 1.68716,2.75421 3.46276,5.00767 3.94577,5.00767 0.48302,0 2.38779,2.25343 4.23284,5.00764 1.84503,2.75421 3.04791,4.04188 2.67308,2.86151 -0.37485,-1.18037 0.77031,0.10723 2.5448,2.86153 1.77448,2.75421 2.92085,4.04188 2.54749,2.86151 -0.37335,-1.18039 1.22964,0.75115 3.56222,4.29227 2.33257,3.54113 3.92836,5.47266 3.54621,4.29228 -0.38217,-1.18039 0.98794,0.42922 3.04469,3.57689 2.05674,3.14767 3.43142,4.75726 3.05485,3.57689 -0.37657,-1.18037 1.0177,0.42924 3.09838,3.57691 2.08069,3.14765 3.22131,4.43535 2.53474,2.86151 -0.68657,-1.57383 0.23751,-0.60807 2.05351,2.14613 1.816,2.75421 2.93882,4.04189 2.49516,2.86151 -0.44365,-1.18037 -0.41442,-1.64463 0.065,-1.03165 1.57015,2.00772 1.41334,5.93534 -0.34602,8.66686 -0.94956,1.47428 -1.65775,3.09581 -1.57374,3.60338 0.084,0.50757 -0.18415,0.79728 -0.59591,0.64375 -0.41176,-0.15354 -5.91956,7.40198 -12.23954,16.78995 -6.31999,9.38798 -11.85108,16.75627 -12.29132,16.37398 -0.44022,-0.38227 -9.20624,11.39176 -19.48004,26.16456 -10.2738,14.77277 -16.63483,23.78707 -14.13562,20.03174 8.79989,-13.22276 3.42024,-6.61138 -10.03241,12.32946 l -13.60639,19.15731 28.89481,-0.029 c 19.7363,-0.0197 29.36023,-0.5365 30.36315,-1.63052 z m -8.08717,-67.14888 c 0,-0.24622 1.48924,-2.3387 3.30942,-4.64995 l 3.30943,-4.20227 -2.9908,4.64997 c -2.78783,4.33441 -3.62805,5.3076 -3.62805,4.20225 z m 64.15196,-10.01531 c 0,-0.24622 1.48925,-2.3387 3.30944,-4.64995 l 3.30942,-4.20227 -2.99079,4.64998 c -2.78784,4.33442 -3.62807,5.3076 -3.62807,4.20224 z m 62.11541,82.43728 c -0.84009,-0.45575 -2.26397,-1.86709 -3.16418,-3.13632 -0.90021,-1.26924 -9.95395,-12.85265 -20.11942,-25.74096 l -18.48266,-23.43324 0.26286,-81.72746 0.26284,-81.72746 h 28.00286 28.00283 V 679.2245 787.24672 l -6.61885,0.2748 c -3.64037,0.15118 -7.30619,-0.098 -8.14628,-0.55381 z m 0.37377,-5.08633 c -0.58927,-1.37815 -0.42785,-1.41232 0.70361,-0.14901 0.80759,0.90172 3.86988,1.63224 6.80509,1.62335 l 5.33677,-0.0158 0.005,-104.9956 0.005,-104.99561 h -2.66664 c -2.07355,0 -6.20465,4.90819 -18.57939,22.07425 -8.75213,12.14083 -19.34966,26.59603 -23.5501,32.12268 l -7.63714,10.04846 v 46.81037 46.81035 l 5.44373,7.98548 c 2.99407,4.39202 5.12064,7.01973 4.72574,5.83936 -0.39492,-1.18037 1.9668,1.76201 5.24825,6.53864 3.28145,4.77664 5.50805,7.6391 4.94799,6.36102 -0.56006,-1.27806 1.87921,1.89604 5.4206,7.05355 3.54139,5.15754 6.15008,8.41157 5.7971,7.2312 -0.35297,-1.18039 1.29226,0.91209 3.65607,4.64995 4.21407,6.66364 5.85745,8.56059 4.33828,5.00765 z m 0.95768,-207.31174 c -1.01233,-0.56107 -10.66149,-1.06536 -21.44258,-1.12065 l -19.60199,-0.10052 v 30.17502 30.17505 l 21.44258,-29.05438 c 17.45962,-23.65749 21.10069,-29.24384 19.60199,-30.07446 z m 360.66893,165.58175 c -24.08662,-7.77182 -35.1308,-24.29156 -35.1308,-52.54835 0,-25.58543 11.67022,-43.50826 33.09427,-50.82542 9.9486,-3.39784 37.9173,-3.41221 47.66775,-0.0244 14.75435,5.1263 25.08309,15.46699 30.2746,30.30992 2.13257,6.09713 2.49903,9.16606 2.48087,20.77704 -0.0187,11.93361 -0.36976,14.62385 -2.8306,21.69108 -4.59124,13.18527 -14.30118,23.50185 -27.06243,28.75322 -8.93748,3.67785 -39.26297,4.84535 -48.49366,1.86699 z m 38.64798,-2.24033 c 1.09424,-0.0877 2.56339,-0.82852 3.26478,-1.64637 0.70138,-0.81783 1.72185,-1.09912 2.2677,-0.62508 0.54592,0.47404 1.26794,0.23566 1.60466,-0.52973 0.33672,-0.76538 1.28476,-1.02891 2.10693,-0.58564 0.8221,0.44329 1.49479,0.11353 1.49479,-0.73296 0,-0.84641 0.68741,-1.16833 1.52752,-0.71538 0.83996,0.45295 1.52737,0.0727 1.52737,-0.84471 0,-0.91755 0.42126,-1.30244 0.93623,-0.85533 0.51483,0.44716 1.60593,-0.12812 2.42445,-1.27817 0.81858,-1.15014 1.77193,-1.69259 2.11866,-1.20545 0.34673,0.48713 0.63038,0.0966 0.63038,-0.86795 0,-0.9645 0.41019,-1.39743 0.91157,-0.96206 0.50138,0.43539 1.17593,-0.17641 1.49905,-1.35958 0.32319,-1.18315 0.99797,-1.98427 1.49949,-1.78025 0.5016,0.20405 1.92404,-1.23863 3.16081,-3.20593 1.23677,-1.96728 1.91133,-2.61113 1.49882,-1.43076 -0.44098,1.26186 -0.36803,1.65487 0.17692,0.95386 0.5099,-0.65579 0.92704,-1.75478 0.92704,-2.44224 0,-0.68747 0.9165,-2.29117 2.0366,-3.56377 1.1201,-1.27259 1.34926,-1.89641 0.50915,-1.38624 -1.0192,0.61893 -0.93982,0.25012 0.23872,-1.10845 0.97137,-1.1198 1.46781,-2.45524 1.10314,-2.96761 -0.36467,-0.51238 -0.10143,-0.93161 0.58501,-0.93161 0.68644,0 0.96493,-0.64383 0.6188,-1.43075 -0.34614,-0.78691 -0.18701,-1.43076 0.35376,-1.43076 0.54061,0 0.74332,-1.28768 0.45047,-2.86151 -0.29291,-1.57383 -0.0845,-2.86153 0.46326,-2.86153 0.54764,0 0.77636,-1.6133 0.50803,-3.58511 -0.26825,-1.97181 0.0803,-4.54718 0.77509,-5.72304 1.00514,-1.70178 1.00372,-2.57644 -0.009,-4.28759 -0.75356,-1.27587 -1.02167,-3.89297 -0.65924,-6.4384 0.37723,-2.65047 0.18955,-4.28874 -0.49143,-4.28874 -0.60595,0 -0.83795,-0.96574 -0.51558,-2.14614 0.32237,-1.18037 0.11525,-2.14613 -0.46034,-2.14613 -0.57552,0 -0.76313,-0.64385 -0.41707,-1.43075 0.34614,-0.78691 0.11705,-1.43076 -0.50915,-1.43076 -0.6262,0 -0.88488,-0.57638 -0.575,-1.28084 0.30974,-0.70445 -0.12557,-1.6523 -0.9677,-2.10633 -0.84205,-0.45402 -1.42482,-1.32627 -1.29499,-1.93837 0.2986,-1.4068 -6.14964,-10.41279 -7.45525,-10.41279 -0.53456,0 -1.22212,-0.91599 -1.52782,-2.03552 -0.60198,-2.20433 -2.51555,-3.56119 -6.5081,-4.61479 -1.40024,-0.36949 -2.68993,-1.24159 -2.86617,-1.93802 -0.17617,-0.69642 -0.97802,-0.9116 -1.78195,-0.47815 -0.80386,0.43344 -1.46168,0.0319 -1.46168,-0.89218 0,-1.02915 -0.78921,-1.32832 -2.0366,-0.77202 -1.12009,0.4995 -2.03652,0.28907 -2.03652,-0.46762 0,-0.75671 -1.03108,-1.42204 -2.29117,-1.47853 -9.3316,-0.4183 -15.78656,-1.23692 -17.25421,-2.18822 -0.94894,-0.61511 -4.84387,-0.49866 -8.65539,0.25878 -6.51304,1.2943 -8.70936,1.58629 -14.31262,1.90275 -1.26017,0.0711 -2.29118,0.74851 -2.29118,1.50522 0,0.75669 -0.87793,0.98433 -1.95087,0.50582 -1.07301,-0.4785 -2.25021,-0.18942 -2.616,0.64231 -0.36587,0.83176 -1.09185,1.14187 -1.61318,0.68912 -0.52133,-0.45273 -0.94789,-0.0723 -0.94789,0.84513 0,0.91753 -0.68741,1.29767 -1.52745,0.84472 -0.84011,-0.45295 -1.52745,-0.1999 -1.52745,0.56231 0,0.76221 -0.34367,1.25828 -0.76372,1.10237 -1.3897,-0.51581 -5.346,1.88296 -5.346,3.24142 0,0.73386 -0.37603,1.17337 -0.83563,0.97664 -0.45959,-0.19671 -2.12053,1.57383 -3.69103,3.93459 -1.5705,2.36075 -2.45457,3.3014 -1.9647,2.09034 0.48994,-1.21106 -0.33029,-0.25598 -1.82268,2.1224 -1.4924,2.37842 -2.49635,4.81793 -2.23101,5.42115 0.26534,0.60323 0.0277,1.09678 -0.52739,1.09678 -1.1704,0 -2.68955,5.53626 -2.29677,8.37044 0.15195,1.09668 -0.21967,1.50881 -0.85947,0.95318 -0.76963,-0.66831 -0.9177,0.19396 -0.46685,2.71796 0.41258,2.30977 0.23686,3.69677 -0.46834,3.69677 -0.68921,0 -1.12869,3.0638 -1.12869,7.86917 0,4.84023 0.43769,7.86916 1.13706,7.86916 0.63569,0 0.90222,1.26166 0.60445,2.86151 -0.29292,1.57385 -0.068,2.86153 0.49936,2.86153 0.56752,0 0.76813,0.96576 0.44576,2.14613 -0.32236,1.18037 -0.11525,2.14614 0.46027,2.14614 0.57552,0 0.76328,0.64384 0.41714,1.43075 -0.34613,0.78693 -0.11704,1.43076 0.50908,1.43076 0.62619,0 0.88496,0.57638 0.57515,1.28085 -0.30989,0.70444 0.12556,1.65229 0.96762,2.10632 0.84205,0.45402 1.41967,1.32629 1.28349,1.93836 -0.32259,1.45081 5.58868,9.75657 6.62126,9.30325 0.4356,-0.1912 1.05642,0.62031 1.37953,1.80346 0.32311,1.18315 0.99775,1.79497 1.49912,1.35958 0.50138,-0.43537 0.91157,-0.0717 0.91157,0.80804 0,0.8798 0.45825,1.20171 1.0183,0.71537 0.56005,-0.48634 1.0183,-0.16438 1.0183,0.71538 0,0.87981 0.45817,1.20172 1.0183,0.71538 0.56005,-0.48634 1.01822,-0.16439 1.01822,0.71538 0,0.8798 0.45825,1.20174 1.0183,0.71538 0.56005,-0.48634 1.0183,-0.15907 1.0183,0.72736 0,0.99215 0.83181,1.24066 2.16411,0.64653 1.55391,-0.69297 1.94855,-0.47523 1.39994,0.77226 -0.54877,1.24746 -0.15412,1.46521 1.39986,0.77224 1.30008,-0.57981 2.16411,-0.34452 2.16411,0.58935 0,0.94363 1.00036,1.20166 2.54567,0.6567 1.40614,-0.49588 2.54575,-0.27593 2.54575,0.49136 0,0.76401 1.14357,1.21272 2.54126,0.99717 1.39777,-0.2156 2.82088,0.24346 3.16253,1.02014 0.51169,1.1633 14.46166,1.06729 30.39845,-0.20921 z m -29.99259,-12.86933 c 0,-0.6577 -0.91642,-0.85911 -2.03652,-0.44753 -1.25524,0.46121 -2.0366,0.044 -2.0366,-1.08779 0,-1.00985 -0.28358,-1.43751 -0.63031,-0.95039 -0.34673,0.48713 -1.30008,-0.0554 -2.11867,-1.20544 -0.81858,-1.15013 -1.90961,-1.72533 -2.42451,-1.27819 -0.51483,0.44713 -0.93616,0.0238 -0.93616,-0.94069 0,-0.96452 -0.29837,-1.33443 -0.66304,-0.82206 -0.36468,0.51238 -1.24418,-0.18508 -1.95446,-1.54998 -0.71028,-1.36486 -1.90116,-2.48159 -2.64643,-2.48159 -0.74518,0 -1.35569,-0.64385 -1.35651,-1.43075 0,-0.78693 -1.01837,-3.43498 -2.26105,-5.88454 -1.24275,-2.44957 -1.96754,-4.86399 -1.61071,-5.36535 0.35682,-0.50136 0.0833,-0.91156 -0.60789,-0.91156 -0.79317,0 -1.01822,-1.05522 -0.6102,-2.86153 0.35548,-1.57383 0.26638,-2.86151 -0.19807,-2.86151 -1.00858,0 -1.12339,-13.6395 -0.12669,-15.04213 0.38149,-0.53678 0.44704,-1.87877 0.14568,-2.98222 -0.30137,-1.10344 -0.1382,-2.00626 0.36257,-2.00626 0.50078,0 0.98729,-1.44863 1.08109,-3.2192 0.0938,-1.77057 1.22235,-4.39514 2.50785,-5.8324 1.28551,-1.43726 3.80674,-4.41595 5.60281,-6.61936 1.79593,-2.20339 3.51435,-3.65648 3.81855,-3.22907 0.30421,0.4274 0.55303,-0.0118 0.55303,-0.97655 0,-0.96452 0.45825,-1.35576 1.01837,-0.8694 0.55997,0.48635 1.01822,0.13345 1.01822,-0.78401 0,-0.91754 0.67269,-1.30561 1.49479,-0.86232 0.82217,0.4433 1.77717,0.164 2.12233,-0.62049 0.34509,-0.78456 1.50532,-1.03498 2.57826,-0.55649 1.07301,0.47852 1.95094,0.30672 1.95094,-0.38171 0,-0.68846 4.57779,-1.30408 10.17298,-1.36808 6.02496,-0.069 9.93462,0.42551 9.58834,1.21264 -0.33934,0.77139 0.51939,0.93972 2.04646,0.40117 1.74824,-0.61651 2.63103,-0.34435 2.63103,0.81111 0,0.95642 0.67269,1.37628 1.49486,0.93298 0.82218,-0.44329 1.75325,-0.21837 2.06911,0.49983 0.31594,0.71817 1.21166,0.96219 1.99049,0.54226 0.77882,-0.41994 2.36793,0.57395 3.53145,2.20861 1.16338,1.6347 2.11523,2.63013 2.11523,2.21213 0,-0.41801 1.51123,1.35256 3.35843,3.93459 1.84705,2.58202 3.19467,5.17747 2.99466,5.76767 -0.19994,0.5902 0.14874,1.07307 0.77486,1.07307 0.6262,0 0.85536,0.64384 0.50915,1.43075 -0.34606,0.78691 -0.11698,1.43076 0.50922,1.43076 0.62612,0 0.85521,0.64385 0.50915,1.43075 -0.34621,0.78693 -0.095,1.43076 0.55796,1.43076 0.65303,0 0.95626,0.84608 0.67381,1.88016 -0.28238,1.03407 -0.0751,5.26816 0.46049,9.40902 0.69481,5.37139 0.63972,8.09467 -0.19224,9.50327 -0.64152,1.08588 -0.89026,2.6019 -0.5528,3.3689 0.33739,0.76702 0.14022,1.80546 -0.43807,2.30768 -0.57836,0.50221 -0.78787,1.51246 -0.46572,2.245 0.32229,0.73253 0.0239,1.33189 -0.6623,1.33189 -0.68644,0 -0.94969,0.41923 -0.58501,0.9316 0.36474,0.51238 -0.1317,1.8478 -1.10306,2.96762 -1.09873,1.26654 -1.18894,1.64193 -0.23881,0.99326 0.84012,-0.57352 0.19718,0.96542 -1.42871,3.41991 -1.62581,2.45448 -3.34744,4.12285 -3.82572,3.70749 -0.47836,-0.41534 -1.14357,0.24768 -1.47835,1.47341 -0.33469,1.22574 -1.01882,1.87239 -1.52019,1.43702 -0.50138,-0.43539 -0.91157,-0.0717 -0.91157,0.80802 0,0.87982 -0.45825,1.20174 -1.01837,0.7154 -0.55998,-0.48636 -1.01823,-0.13344 -1.01823,0.78401 0,0.91755 -0.68741,1.29767 -1.52737,0.84472 -0.84011,-0.45295 -1.52753,-0.15651 -1.52753,0.65871 0,0.83117 -0.89452,1.08333 -2.03652,0.57407 -1.1201,-0.49953 -2.03667,-0.38195 -2.03682,0.26126 -8e-5,0.64324 -5.72801,1.28502 -12.72859,1.42621 -7.00051,0.14112 -12.72837,-0.28139 -12.72837,-0.93912 z m 27.5766,-5.1878 c 13.13257,-5.17741 20.24878,-21.50603 17.18731,-39.43739 -1.7827,-10.44058 -8.66564,-20.06558 -16.9071,-23.64221 -9.15199,-3.97179 -25.66475,-3.54681 -32.67019,0.84084 -14.83619,9.292 -19.62872,32.21507 -10.45535,50.0082 2.84995,5.52761 9.46269,11.0879 15.65844,13.16619 5.87832,1.97179 21.14488,1.4464 27.18689,-0.93563 z m -333.89044,18.1966 c -0.93812,-0.81466 -1.17038,-13.24984 -0.96691,-51.76818 l 0.26781,-50.69596 11.45571,-0.40455 11.45571,-0.40456 v 51.40108 c 0,44.58085 -0.20455,51.51135 -1.54166,52.23229 -2.23143,1.20313 -19.21112,0.90732 -20.67066,-0.36012 z m 16.86632,-4.3114 3.30943,-0.14586 v -46.31244 -46.31244 l -3.81857,-0.88682 c -2.10021,-0.48776 -5.49945,-0.89391 -7.55386,-0.90259 -7.43344,-0.0313 -6.9567,-3.27145 -6.9567,47.28126 0,50.91641 -0.41992,48.20773 7.39506,47.70324 2.37337,-0.15315 5.80445,-0.34419 7.62464,-0.42439 z m 51.30868,4.60186 c -1.19805,-0.69188 -28.93845,-32.18133 -40.10754,-45.52802 -2.10021,-2.50967 -3.81858,-5.79181 -3.81858,-7.29366 0,-1.83565 6.97538,-10.58305 21.28275,-26.68946 l 21.28273,-23.95884 h 13.84811 c 12.52201,0 13.84504,0.23976 13.81611,2.50382 -0.0176,1.3771 -1.27773,3.74878 -2.80028,5.27037 -1.52257,1.5216 -10.91664,11.72081 -20.87574,22.66494 l -18.10745,19.89839 15.64924,17.39629 c 8.60709,9.56796 18.58835,20.63152 22.1806,24.58569 9.65378,10.62643 9.20196,11.35785 -7.21551,11.68113 -7.56077,0.14881 -14.37127,-0.0899 -15.13444,-0.53065 z m 23.28071,-4.81564 c 0,-1.02141 -6.34978,-7.75423 -7.33872,-7.78143 -0.39595,-0.0118 -1.46094,-1.30746 -2.36666,-2.8813 -0.90572,-1.57383 -1.35053,-1.89577 -0.98846,-0.71537 0.36207,1.18037 -0.51441,0.2146 -1.94772,-2.14616 -1.43334,-2.36074 -3.01862,-4.29226 -3.52288,-4.29226 -0.50425,0 -1.91984,-1.60961 -3.14576,-3.57689 -1.22592,-1.9673 -1.93178,-2.61115 -1.56856,-1.43076 0.3632,1.18037 -0.56863,0.21461 -2.07074,-2.14615 -1.50212,-2.36074 -2.42035,-3.3265 -2.0405,-2.14613 0.37986,1.18039 -0.72987,-0.10723 -2.46607,-2.86151 -1.73619,-2.75421 -3.48593,-5.02397 -3.88831,-5.04392 -0.40238,-0.0199 -2.56451,-2.43126 -4.80474,-5.35849 -2.24023,-2.92725 -4.41682,-5.32534 -4.83686,-5.32908 -0.42004,-0.004 -0.76371,-1.01861 -0.76371,-2.25518 0,-2.41136 2.83823,-7.05159 4.31315,-7.05159 0.49204,0 1.82465,-1.60961 2.96138,-3.57691 1.13672,-1.96728 1.7665,-2.61113 1.39952,-1.43076 -0.36699,1.18039 0.79923,-0.10722 2.5916,-2.86151 1.79236,-2.7542 2.93442,-4.04188 2.53787,-2.86151 -0.39653,1.18037 0.29099,0.53652 1.52783,-1.43077 1.23683,-1.96728 2.58078,-3.44666 2.98653,-3.28752 0.40576,0.15906 2.52175,-2.06343 4.70221,-4.93905 2.18047,-2.87561 4.25649,-5.25927 4.6134,-5.29702 0.3569,-0.0378 1.65193,-1.6782 2.87786,-3.6455 1.22591,-1.9673 1.93177,-2.61113 1.56856,-1.43075 -0.36321,1.18037 0.56863,0.21461 2.07074,-2.14614 1.50213,-2.36076 2.38093,-3.388 1.95289,-2.28276 -0.54892,1.41741 -0.39101,1.67327 0.53591,0.86835 0.9875,-0.85751 0.71022,-1.79365 -1.11552,-3.76615 -1.85736,-2.00668 -4.22855,-2.62731 -10.0668,-2.63488 -4.55369,-0.006 -7.08847,0.47875 -6.2782,1.20044 1.03307,0.92011 0.84961,1.3975 -0.76512,1.99079 -1.4256,0.52381 -1.90438,0.23623 -1.45602,-0.87456 0.79194,-1.96198 -5.25028,5.3935 -8.63058,10.50642 -1.30065,1.9673 -2.06397,2.61114 -1.69628,1.43077 0.3677,-1.18039 -0.78331,0.10723 -2.55779,2.86151 -1.77448,2.75421 -2.92005,4.04188 -2.54571,2.86151 0.37434,-1.18037 -0.77123,0.10723 -2.54571,2.86151 -1.77449,2.75421 -2.9255,4.04191 -2.5578,2.86152 0.3677,-1.18038 -0.56047,-0.21461 -2.06259,2.14613 -1.50212,2.36076 -2.41393,3.32652 -2.02627,2.14615 0.38767,-1.18037 -1.20362,0.75113 -3.53619,4.29227 -2.33258,3.54113 -3.941,5.47265 -3.5743,4.29226 0.36671,-1.18037 -0.39741,-0.45819 -1.69805,1.6048 -1.30064,2.06304 -3.45168,4.5421 -4.78008,5.50905 l -2.4153,1.75811 2.4153,3.24703 c 1.3284,1.78588 2.59067,3.03072 2.80503,2.76635 0.21438,-0.2644 1.28207,1.11319 2.37269,3.06129 1.09062,1.94812 2.35433,3.21948 2.80829,2.82529 0.45396,-0.3942 1.57339,0.88735 2.48765,2.84789 0.91425,1.96051 2.20729,3.56461 2.87342,3.56461 0.66612,0 2.2925,1.77056 3.61417,3.93457 1.32168,2.16403 2.10941,2.96884 1.75052,1.78845 -0.3589,-1.18037 0.67233,-0.0536 2.29163,2.50384 1.6193,2.55747 3.27648,4.64995 3.68259,4.64995 0.40612,0 1.91917,1.77057 3.36233,3.9346 1.44316,2.16401 2.04426,2.6469 1.33577,1.07307 -0.70847,-1.57386 0.82055,0.35769 3.39782,4.29226 2.57729,3.93458 4.70358,6.70909 4.72509,6.16557 0.0215,-0.54352 1.12696,-0.19533 2.45652,0.77396 2.40831,1.75554 23.03973,2.52716 23.03973,0.86169 z m -28.09959,-6.01277 -1.93982,-3.2192 2.29114,2.72557 c 1.26013,1.49907 2.29114,2.9477 2.29114,3.21921 0,1.14496 -0.8195,0.29967 -2.64246,-2.72558 z m 26.06303,-87.54947 c 0,-0.34702 -0.45822,-1.02887 -1.01829,-1.51521 -0.56005,-0.48634 -1.01828,-0.20243 -1.01828,0.63093 0,0.83337 0.45823,1.51522 1.01828,1.51522 0.56007,0 1.01829,-0.28393 1.01829,-0.63094 z m 23.16332,98.51485 c -0.41858,-0.58811 -0.76104,-24.16135 -0.76104,-52.38499 v -51.31569 l 11.4557,0.40456 11.45571,0.40455 0.26743,51.1496 c 0.1471,28.13228 0.1471,51.19862 0,51.25854 -2.05412,0.83694 -21.8622,1.26411 -22.4178,0.48343 z m 18.35419,-4.61602 c 1.83181,-0.37992 1.75947,-93.19279 -0.0728,-93.41846 -3.84191,-0.47321 -15.15971,-0.0587 -15.6083,0.57151 -0.60358,0.84807 -0.55229,91.02902 0.0526,92.39956 0.35083,0.79495 12.303,1.13713 15.62857,0.44739 z m 58.16406,3.71672 c -0.88922,-1.01157 -3.35184,-6.34611 -5.4725,-11.85453 -2.12067,-5.50841 -10.68549,-27.58057 -19.03296,-49.04924 -8.34745,-21.46864 -14.90307,-39.65716 -14.56801,-40.41892 0.33516,-0.76195 5.83939,-1.38496 12.23591,-1.38496 10.96387,0 11.7065,0.1835 13.02607,3.2192 0.76965,1.77056 7.7041,19.31523 15.40992,38.98814 7.70581,19.67293 14.31562,36.23632 14.68847,36.80754 0.37286,0.57121 5.60056,-11.66176 11.61711,-27.18441 6.01655,-15.52264 12.9499,-33.37369 15.40745,-39.66903 l 4.46821,-11.44606 10.78707,-0.4061 c 8.84001,-0.3328 10.78706,-0.0345 10.78706,1.65263 0,1.1323 -4.05361,12.26033 -9.0081,24.72898 -4.95442,12.46864 -13.71386,34.58132 -19.46548,49.13928 -5.75163,14.55796 -10.9332,26.89031 -11.51468,27.40521 -2.11318,1.87121 -27.66033,1.41211 -29.36554,-0.52773 z m 29.2553,-6.31369 c 0.15095,-1.44507 0.76049,-2.85503 1.35453,-3.13324 0.59405,-0.27824 0.82108,-1.09471 0.50451,-1.81442 -0.31657,-0.7197 -0.0139,-1.30855 0.67251,-1.30855 0.68646,0 0.94973,-0.41923 0.58507,-0.93161 -0.36467,-0.51238 0.13174,-1.84781 1.10313,-2.96761 1.1785,-1.35858 1.25794,-1.72738 0.23874,-1.10845 -1.01918,0.61896 -0.93974,0.25013 0.23876,-1.10842 0.97139,-1.11983 1.46784,-2.45524 1.10317,-2.96762 -0.36471,-0.51238 -0.10143,-0.9316 0.58501,-0.9316 0.68651,0 0.96493,-0.64385 0.6188,-1.43076 -0.34614,-0.78692 -0.11705,-1.43075 0.50915,-1.43075 0.62612,0 0.89811,-0.54634 0.60444,-1.2141 -0.29374,-0.66774 0.33896,-2.53071 1.40599,-4.13996 1.06704,-1.60924 1.66214,-3.31633 1.32251,-3.79357 -0.33963,-0.47723 -0.0561,-0.86768 0.63053,-0.86768 0.68652,0 0.96493,-0.64385 0.6188,-1.43076 -0.34614,-0.78692 -0.11705,-1.43077 0.50915,-1.43077 0.62612,0 0.8656,-0.62035 0.53209,-1.37856 -0.3335,-0.75821 0.28859,-2.63608 1.38245,-4.17304 1.09387,-1.53697 1.72156,-3.17004 1.39486,-3.62908 -0.32671,-0.45904 0.0172,-0.83461 0.76372,-0.83461 0.74676,0 1.05933,-0.41922 0.69466,-0.9316 -0.36467,-0.51238 0.13177,-1.84781 1.10313,-2.96761 0.97144,-1.11983 1.14768,-1.58866 0.39173,-1.04189 -1.10761,0.8012 -1.15014,0.40525 -0.2187,-2.04003 0.63562,-1.6688 1.62484,-3.03418 2.19827,-3.03418 0.57336,0 0.75932,-0.64384 0.41318,-1.43075 -0.34613,-0.78693 -0.11697,-1.43078 0.50915,-1.43078 0.6262,0 0.85529,-0.64382 0.50915,-1.43075 -0.34613,-0.78691 -0.11705,-1.43076 0.50915,-1.43076 0.62612,0 0.85529,-0.64383 0.50915,-1.43075 -0.34613,-0.78691 -0.11705,-1.43076 0.50915,-1.43076 0.62612,0 0.85327,-0.6484 0.50466,-1.44087 -0.34852,-0.79246 0.0799,-1.82569 0.95238,-2.29605 0.87233,-0.47035 1.33259,-1.43158 1.02271,-2.13602 -0.30988,-0.70446 -0.0508,-1.28085 0.57507,-1.28085 0.6262,0 0.85529,-0.64383 0.50915,-1.43076 -0.34613,-0.78691 -0.14403,-1.43076 0.44906,-1.43076 0.59308,0 1.02413,-0.48287 0.95776,-1.07306 -0.31916,-2.84027 0.22124,-4.73144 1.12727,-3.94471 0.57597,0.50022 0.74863,-0.0706 0.40346,-1.33425 -0.3548,-1.29919 0.0665,-2.56962 1.02413,-3.08576 0.89498,-0.48254 1.37371,-1.45374 1.06382,-2.1582 -0.30988,-0.70446 -0.15165,-1.28083 0.35152,-1.28083 1.09984,0 3.36201,-6.55943 2.62116,-7.60038 -1.03026,-1.44759 -14.96812,0.73548 -16.25691,2.54631 -0.72486,1.01855 -1.03429,2.25046 -0.68764,2.73759 0.34674,0.48715 0.0688,0.88572 -0.61775,0.88572 -0.68644,0 -0.96486,0.64385 -0.61872,1.43076 0.34613,0.7869 0.11705,1.43075 -0.50915,1.43075 -0.6262,0 -0.85528,0.64385 -0.50915,1.43076 0.34614,0.78692 0.11705,1.43077 -0.50915,1.43077 -0.62612,0 -0.85528,0.64383 -0.50915,1.43076 0.34614,0.7869 0.11705,1.43075 -0.50915,1.43075 -0.62612,0 -0.88496,0.57638 -0.57507,1.28084 0.30988,0.70444 -0.15031,1.66567 -1.02271,2.13602 -0.8724,0.47038 -1.3009,1.50359 -0.95238,2.29607 0.34861,0.79247 0.12146,1.44085 -0.50466,1.44085 -0.6262,0 -0.85529,0.64385 -0.50915,1.43076 0.34613,0.78692 0.11705,1.43075 -0.50915,1.43075 -0.62612,0 -0.85529,0.64385 -0.50915,1.43076 0.34613,0.78692 0.11705,1.43077 -0.50915,1.43077 -0.62612,0 -0.85327,0.64838 -0.50466,1.44087 0.3486,0.79246 -0.0799,1.8257 -0.95238,2.29605 -0.87233,0.47035 -1.33259,1.43158 -1.02271,2.13602 0.30988,0.70446 0.0508,1.28084 -0.57507,1.28084 -0.6262,0 -0.85529,0.64385 -0.50915,1.43075 0.34613,0.78693 0.11705,1.43078 -0.50914,1.43078 -0.62616,0 -0.85528,0.64383 -0.50915,1.43075 0.34614,0.78691 0.11703,1.43076 -0.50915,1.43076 -0.62616,0 -0.85527,0.64383 -0.50913,1.43075 0.34613,0.78691 0.11702,1.43076 -0.50914,1.43076 -0.62617,0 -0.85528,0.64385 -0.50915,1.43076 0.34614,0.78692 0.11702,1.43075 -0.50914,1.43075 -0.62616,0 -0.85327,0.6484 -0.50469,1.44087 0.34857,0.79248 -0.0799,1.8257 -0.95235,2.29607 -0.87238,0.47034 -1.3326,1.43156 -1.02273,2.13602 0.30986,0.70446 0.0511,1.28084 -0.57509,1.28084 -0.62616,0 -0.85527,0.64385 -0.50914,1.43075 0.34614,0.78693 0.11703,1.43076 -0.50914,1.43076 -0.62617,0 -0.85529,0.64385 -0.50914,1.43075 0.34614,0.78693 0.11701,1.43076 -0.50915,1.43076 -0.62616,0 -0.8656,0.62037 -0.53209,1.37858 0.33351,0.75821 -0.2886,2.63608 -1.38247,4.17304 -1.09388,1.53697 -1.72157,3.17004 -1.39486,3.6291 0.32669,0.45902 0.0324,0.83459 -0.6541,0.83459 -0.68645,0 -0.9649,0.64384 -0.61876,1.43077 0.34613,0.78691 0.0677,1.43076 -0.61876,1.43076 -0.68647,0 -0.9907,0.36165 -0.6761,0.80368 0.31459,0.44201 -0.54914,2.50341 -1.91941,4.58085 l -2.49139,3.77719 -2.39624,-4.22247 c -1.31793,-2.32235 -2.1837,-4.70566 -1.92393,-5.29625 0.25977,-0.59057 -0.0401,-1.07376 -0.66617,-1.07376 -0.62616,0 -0.85527,-0.64385 -0.50914,-1.43077 0.34614,-0.78691 0.11702,-1.43076 -0.50914,-1.43076 -0.62617,0 -0.88495,-0.57638 -0.57509,-1.28083 0.30986,-0.70446 -0.15037,-1.66567 -1.02273,-2.13603 -0.87237,-0.47035 -1.30092,-1.50358 -0.95235,-2.29607 0.34858,-0.79246 0.12148,-1.44085 -0.50468,-1.44085 -0.62618,0 -0.85529,-0.64384 -0.50915,-1.43077 0.34613,-0.78691 0.11702,-1.43076 -0.50914,-1.43076 -0.62616,0 -0.85528,-0.64382 -0.50915,-1.43075 0.34614,-0.78691 0.0677,-1.43076 -0.61876,-1.43076 -0.68645,0 -0.98079,-0.37556 -0.6541,-0.8346 0.32671,-0.45904 -0.30098,-2.09213 -1.39485,-3.62909 -1.09387,-1.53695 -1.71599,-3.41482 -1.38247,-4.17303 0.3335,-0.75821 0.0447,-1.37858 -0.64171,-1.37858 -0.68647,0 -0.9808,-0.37557 -0.6541,-0.83459 0.32669,-0.45906 -0.30099,-2.09215 -1.39486,-3.6291 -1.09388,-1.53696 -1.71598,-3.41483 -1.38247,-4.17304 0.3335,-0.75821 0.0941,-1.37858 -0.5321,-1.37858 -0.62616,0 -0.85528,-0.64383 -0.50914,-1.43076 0.34613,-0.7869 0.0677,-1.43075 -0.61876,-1.43075 -0.68646,0 -0.97021,-0.39045 -0.63056,-0.86768 0.33964,-0.47722 -0.25548,-2.18434 -1.3225,-3.79357 -1.06703,-1.60924 -1.69972,-3.47225 -1.40601,-4.13998 0.29371,-0.66774 0.0217,-1.21408 -0.60445,-1.21408 -0.62618,0 -0.85529,-0.64385 -0.50915,-1.43076 0.34613,-0.7869 0.11702,-1.43075 -0.50914,-1.43075 -0.62616,0 -0.85528,-0.64385 -0.50914,-1.43076 0.34613,-0.7869 0.11702,-1.43075 -0.50915,-1.43075 -0.62616,0 -0.88496,-0.57638 -0.57509,-1.28084 0.30987,-0.70446 -0.15036,-1.66568 -1.02273,-2.13602 -0.87236,-0.47037 -1.30091,-1.50359 -0.95234,-2.29607 0.34858,-0.79247 0.12148,-1.44087 -0.5047,-1.44087 -0.62616,0 -0.85528,-0.64385 -0.50913,-1.43075 0.34612,-0.78691 0.11701,-1.43076 -0.50914,-1.43076 -0.62617,0 -0.85528,-0.64385 -0.50915,-1.43076 0.34614,-0.78692 0.11702,-1.43075 -0.50915,-1.43075 -0.62616,0 -0.87694,-0.59459 -0.55729,-1.32128 0.68773,-1.56353 -14.62896,-2.69041 -18.01194,-1.32517 -1.26809,0.51175 -1.70578,0.99464 -0.97266,1.07307 0.73313,0.0785 1.04975,0.78645 0.70361,1.57338 -0.34613,0.78691 -0.11702,1.43075 0.50915,1.43075 0.62616,0 0.89817,0.54634 0.60446,1.21408 -0.29372,0.66774 0.33898,2.53073 1.406,4.13998 1.06702,1.60922 1.66215,3.31634 1.32251,3.79357 -0.33965,0.47721 -0.0559,0.86768 0.63056,0.86768 0.68645,0 0.96489,0.64383 0.61876,1.43076 -0.34614,0.78691 -0.11703,1.43075 0.50914,1.43075 0.62616,0 0.85528,0.64385 0.50913,1.43076 -0.34612,0.78691 -0.11701,1.43075 0.50915,1.43075 0.62616,0 0.85528,0.64385 0.50915,1.43076 -0.34614,0.78693 -0.11703,1.43076 0.50913,1.43076 0.62618,0 0.85328,0.6484 0.5047,1.44086 -0.34857,0.79249 0.0799,1.8257 0.95233,2.29607 0.87238,0.47034 1.35544,1.37967 1.07349,2.02068 -0.28196,0.64101 0.15708,2.10651 0.97563,3.25665 0.81857,1.15013 1.20464,2.48973 0.85793,2.97686 -0.34669,0.48714 -0.14544,0.88569 0.44726,0.88569 0.59268,0 1.36511,1.60961 1.71653,3.57691 0.35141,1.9673 1.11548,3.57689 1.69792,3.57689 0.58244,0 0.77578,0.64385 0.42964,1.43076 -0.34613,0.78692 -0.11702,1.43075 0.50915,1.43075 0.62616,0 0.85527,0.64385 0.50914,1.43076 -0.34614,0.78692 -0.11702,1.43077 0.50914,1.43077 0.62617,0 0.85528,0.64383 0.50915,1.43076 -0.34614,0.7869 -0.11703,1.43075 0.50913,1.43075 0.62617,0 0.85328,0.64838 0.5047,1.44087 -0.34857,0.79249 0.0799,1.8257 0.95234,2.29605 0.87238,0.47036 1.33261,1.43158 1.02274,2.13602 -0.30987,0.70446 -0.0511,1.28084 0.57508,1.28084 0.62616,0 0.85528,0.64385 0.50915,1.43077 -0.34614,0.78691 -0.11703,1.43076 0.50914,1.43076 0.62617,0 0.85527,0.64383 0.50914,1.43076 -0.34614,0.7869 -0.11702,1.43075 0.50914,1.43075 0.62617,0 0.85528,0.64385 0.50915,1.43076 -0.34614,0.78692 -0.11702,1.43075 0.50914,1.43075 0.62616,0 0.85527,0.64385 0.50914,1.43076 -0.34614,0.78692 -0.11703,1.43077 0.50915,1.43077 0.62616,0 0.89816,0.54632 0.60445,1.21408 -0.29371,0.66774 0.33898,2.53073 1.40601,4.13998 1.06702,1.60922 1.66214,3.31633 1.3225,3.79357 -0.33965,0.47721 -0.0559,0.86766 0.63056,0.86766 0.68645,0 0.96489,0.64385 0.61876,1.43078 -0.34614,0.7869 -0.11702,1.43075 0.50914,1.43075 0.62616,0 0.89816,0.54632 0.60445,1.21408 -0.29371,0.66773 0.38444,2.59926 1.507,4.29226 1.12257,1.69301 1.6795,3.12347 1.23765,3.17878 -0.44186,0.0554 -0.0194,0.53818 0.93896,1.07306 0.95829,0.53487 7.56871,0.87882 14.6898,0.76432 11.72128,-0.18843 12.97346,-0.45699 13.22191,-2.83553 z m 174.94717,6.75499 c -0.2392,-0.33622 -0.435,-23.68226 -0.435,-51.88014 v -51.26881 l 28.2574,0.0442 c 37.6573,0.0589 46.8083,1.75428 55.854,10.34826 6.5137,6.18833 9.5039,14.49118 9.542,26.49552 0.056,17.40122 -5.1255,27.05645 -17.336,32.30575 l -3.7887,1.62881 11.5245,14.30757 c 6.3385,7.86918 11.4362,15.27334 11.3281,16.45371 -0.1601,1.749 -2.4784,2.22021 -12.5278,2.5464 l -12.3312,0.40022 -11.0147,-15.7809 -11.0145,-15.78091 h -12.5018 -12.5018 l -0.2891,15.38066 -0.289,15.38064 -11.0206,0.0158 c -6.0615,0.008 -11.2164,-0.25994 -11.4558,-0.59617 z m 17.9417,-4.42665 c 1.7345,0 1.9454,-1.40129 2.2079,-14.66528 l 0.2903,-14.66527 5.0913,-0.71537 c 2.8003,-0.39347 9.3072,-0.50956 14.4596,-0.258 9.3497,0.45648 9.3766,0.46858 13.7469,6.18171 2.4083,3.14836 3.6913,5.27336 2.8512,4.72223 -0.84,-0.55112 1.7319,3.65548 5.7154,9.34801 l 7.2429,10.35005 10.3226,0.43131 c 5.6775,0.2372 10.3225,0.31094 10.3225,0.1638 0,-0.14705 -2.8534,-4.11034 -6.3409,-8.80721 -3.4876,-4.69688 -5.435,-6.88892 -4.3277,-4.87124 1.1073,2.01767 -0.4001,0.0861 -3.3497,-4.29227 -2.9495,-4.37844 -5.8134,-7.96081 -6.3643,-7.96081 -0.5507,0 -1.0014,-0.48287 -1.0014,-1.07307 0,-0.59017 0,-1.96903 0,-3.06409 0,-1.97012 3.3039,-3.86995 8.0563,-4.63273 1.3507,-0.21676 2.833,-1.22951 3.2938,-2.25052 0.4611,-1.02103 0.8475,-1.21256 0.8589,-0.42565 0.011,0.78692 1.0493,-0.20923 2.3067,-2.21368 1.2574,-2.00446 1.8499,-2.64831 1.3169,-1.43078 -0.8137,1.8586 -0.7321,1.91534 0.5091,0.35373 0.8131,-1.023 1.5358,-2.47164 1.6056,-3.21922 0.07,-0.74757 0.1847,-2.04106 0.2546,-2.87442 0.07,-0.83335 0.5802,-1.12183 1.1339,-0.64107 0.598,0.51924 0.7344,-0.1228 0.3362,-1.58103 -0.4282,-1.56782 -0.2744,-2.11107 0.4258,-1.50309 0.6974,0.60566 0.9024,-0.0899 0.5634,-1.91142 -0.2931,-1.57492 -0.074,-2.86349 0.4866,-2.86349 0.5608,0 1.0195,-3.21919 1.0195,-7.15379 0,-3.93458 -0.4543,-7.1538 -1.0097,-7.1538 -0.5553,0 -0.746,-0.96574 -0.4236,-2.14613 0.3224,-1.18037 0.1152,-2.14613 -0.4603,-2.14613 -0.5755,0 -0.7632,-0.64385 -0.417,-1.43076 0.346,-0.78691 0.144,-1.43076 -0.4492,-1.43076 -0.593,0 -0.9712,-0.48287 -0.8402,-1.07306 0.2705,-1.21995 -4.9853,-8.86624 -6.1163,-8.89801 -0.4073,-0.0118 -1.45,-0.87421 -2.3171,-1.91728 -0.8669,-1.04306 -2.1271,-1.6385 -2.8002,-1.32325 -0.6732,0.31529 -1.2239,-0.0351 -1.2239,-0.77833 0,-0.74339 -1.1456,-1.0439 -2.5458,-0.66782 -1.556,0.41793 -2.5456,0.0252 -2.5456,-1.01021 0,-1.01805 -0.7784,-1.34683 -1.9509,-0.82396 -1.073,0.47849 -2.2156,0.26806 -2.5393,-0.4676 -0.3525,-0.80149 -12.5894,-1.11156 -30.5306,-0.7736 -16.4682,0.31023 -30.6279,0.56404 -31.466,0.56404 -1.321,0 -1.5281,6.18218 -1.5559,46.43137 l -0.032,46.43139 5.7798,0.50189 c 3.179,0.27605 6.3902,0.30676 7.1361,0.0682 0.7459,-0.23849 2.2191,-0.43363 3.2738,-0.43363 z m 46.2525,-8.94224 -6.0778,-8.94224 6.3642,8.53977 c 3.5004,4.69684 6.3643,8.72087 6.3643,8.94224 0,1.05718 -1.0049,-0.2332 -6.6507,-8.53977 z m -41.2087,-33.94114 c -2.5243,-0.8719 -2.5482,-1.0289 -2.8329,-18.58401 -0.1581,-9.73759 0.1421,-18.30813 0.667,-19.04568 1.3887,-1.95106 36.4823,-2.89178 37.3143,-1.00023 0.3646,0.82899 1.5409,1.11576 2.6139,0.63726 1.0905,-0.48636 1.9509,-0.19651 1.9509,0.65717 0,0.83995 1.0894,1.52718 2.421,1.52718 1.3315,0 2.9914,0.96576 3.6886,2.14614 0.6973,1.18037 0.9719,2.14613 0.6104,2.14613 -0.3615,0 0.1429,1.71593 1.121,3.81316 1.8802,4.03216 2.6479,13.35592 1.0995,13.35592 -0.5029,0 -0.5996,0.71583 -0.2148,1.59073 0.3849,0.87492 0.068,2.1391 -0.7036,2.80934 -0.7718,0.67024 -1.4032,2.04689 -1.4032,3.05925 0,1.01235 -0.491,1.84061 -1.0911,1.84061 -0.6001,0 -1.9084,1.14858 -2.9075,2.55239 -1.1,1.54547 -2.5778,2.21299 -3.746,1.69204 -1.061,-0.47319 -1.9292,-0.27409 -1.9292,0.44245 0,1.44575 -32.5884,1.76591 -36.6583,0.36015 z m 37.0428,-4.45734 c 7.7647,-3.02921 11.3907,-12.03202 8.398,-20.85036 -2.7697,-8.16076 -6.5616,-9.57683 -27.3662,-10.21989 l -18.0746,-0.55868 v 16.59269 16.59269 l 16.5472,-0.008 c 9.1009,-0.004 18.324,-0.70118 20.4956,-1.54847 z"
       id="path1" /></g></svg>
