<?xml version="1.0" encoding="UTF-8" standalone="no"?>
<!-- Created with Inkscape (http://www.inkscape.org/) -->

<svg
   version="1.1"
   id="svg1"
   width="1536"
   height="1024"
   viewBox="0 0 1536 1024"
   sodipodi:docname="logo-kivorVweb2.svg"
   inkscape:version="1.4.2 (f4327f4, 2025-05-13)"
   xmlns:inkscape="http://www.inkscape.org/namespaces/inkscape"
   xmlns:sodipodi="http://sodipodi.sourceforge.net/DTD/sodipodi-0.dtd"
   xmlns="http://www.w3.org/2000/svg"
   xmlns:svg="http://www.w3.org/2000/svg">
  <defs
     id="defs1" />
  <sodipodi:namedview
     id="namedview1"
     pagecolor="#505050"
     bordercolor="#eeeeee"
     borderopacity="1"
     inkscape:showpageshadow="0"
     inkscape:pageopacity="0"
     inkscape:pagecheckerboard="0"
     inkscape:deskcolor="#505050"
     inkscape:zoom="0.83496094"
     inkscape:cx="734.76491"
     inkscape:cy="441.33801"
     inkscape:window-width="1920"
     inkscape:window-height="1057"
     inkscape:window-x="-8"
     inkscape:window-y="-8"
     inkscape:window-maximized="1"
     inkscape:current-layer="g1" />
  <g
     inkscape:groupmode="layer"
     inkscape:label="Image"
     id="g1"
     transform="translate(-33.534499,-3.5929808)">
    <path
       style="fill:#e3b56b"
       d="m 406.5345,547.20164 c 0,-0.76524 18.85816,-19.55274 41.90702,-41.75 23.04887,-22.19726 41.94887,-40.83712 42,-41.42189 0.0815,-0.93241 -18.64445,-16.92732 -63.20738,-53.98894 -7.0402,-5.85511 -12.62719,-11.16365 -12.41553,-11.79675 0.27932,-0.83551 8.99729,-1.15108 31.80036,-1.15108 28.55685,0 31.75402,0.16831 35.1354,1.84964 4.0467,2.01216 55.14172,47.58896 56.77764,50.64571 0.55137,1.03024 1.00249,8.01925 1.00249,15.53114 v 13.65797 l -35.25,34.86494 -35.25,34.86494 -31.25,0.0428 c -26.04697,0.0357 -31.25,-0.18879 -31.25,-1.34848 z m 156.7689,-16.87737 -20.2689,-18.35556 -0.24186,-24.93787 c -0.13302,-13.71582 0.092,-39.11286 0.5,-56.43786 l 0.74186,-31.5 25.5,-0.53014 c 14.025,-0.29157 26.29038,-0.1617 27.2564,0.28861 1.65547,0.7717 1.74166,5.08306 1.5,75.03014 l -0.2564,74.21139 -7.2311,0.29343 -7.23109,0.29343 z m 376.8849,-14.29933 c -24.78111,-5.54542 -37.01043,-18.94248 -35.41658,-38.79841 0.69572,-8.6672 3.9916,-15.61408 10.18856,-21.47491 8.89321,-8.41083 17.21981,-11.53916 35.15619,-13.20831 30.1015,-2.80122 54.31193,5.53333 62.25133,21.43025 4.3688,8.74768 4.6883,20.64872 0.8039,29.94533 -3.7282,8.92268 -15.65997,17.62591 -29.1372,21.25306 -8.73429,2.35068 -34.88039,2.85933 -43.8462,0.85299 z m 35.8462,-14.13277 c 7.03382,-2.18132 11.33268,-5.74357 14.09784,-11.68216 4.30568,-9.24709 2.69964,-19.35575 -4.16794,-26.23361 -6.09218,-6.10129 -12.19767,-7.88602 -26.9299,-7.872 -10.36883,0.01 -12.67965,0.32267 -17,2.30122 -10.28545,4.71034 -15.30264,13.12163 -14.1999,23.80609 1.07969,10.46118 8.28478,18.14891 19.04531,20.32106 2.83502,0.57229 6.05459,1.23164 7.15459,1.46522 3.57025,0.75815 16.86997,-0.51489 22,-2.10582 z m -329.91342,11.06584 c -0.35884,-0.93512 -0.60426,-16.47601 -0.54538,-34.53532 0.0904,-27.72715 0.33997,-33.06803 1.60435,-34.33241 2.03687,-2.03686 18.57442,-2.1421 20.24529,-0.12883 0.81067,0.9768 1.06037,11.20863 0.87244,35.75 l -0.26328,34.38153 -10.63049,0.28262 c -9.24431,0.24577 -10.71557,0.0609 -11.28293,-1.41759 z m 45.94116,-15.84417 c -11.53474,-9.54492 -21.16172,-17.9228 -21.39329,-18.61751 -0.23157,-0.69471 0.70298,-2.19466 2.07677,-3.33323 9.37428,-7.76918 36.76121,-29.54141 38.91334,-30.93557 3.60228,-2.33355 26.21018,-2.02283 26.58957,0.36545 0.14478,0.91143 -7.59999,7.52936 -19.73793,16.86611 -10.98691,8.45135 -19.9762,15.76807 -19.9762,16.25937 0,0.78429 17.57388,15.06827 35.83123,29.12348 9.34513,7.19424 8.78441,7.7629 -7.58123,7.68868 l -13.75,-0.0624 z m 65.17171,16.84525 c -0.3847,-0.38469 -0.69945,-16.13361 -0.69945,-34.99759 0,-32.88612 0.0796,-34.34077 1.93426,-35.33334 2.26786,-1.21372 16.9866,-1.37219 18.82891,-0.20271 0.9865,0.62622 1.20552,8.4529 1,35.73468 l -0.26317,34.93285 -10.05055,0.28278 c -5.52781,0.15553 -10.36531,-0.032 -10.75,-0.41667 z m 74.61207,-0.5902 c -2.19726,-2.87137 -37.31152,-67.53352 -37.31152,-68.70838 0,-1.54765 3.04936,-2.06753 12.12724,-2.06753 8.13847,0 9.16662,0.21785 11.16821,2.36633 1.2125,1.30148 8.50455,13.89415 16.20455,27.98371 7.7,14.08957 14.31217,25.62472 14.6937,25.63368 0.69645,0.0163 3.2199,-4.40517 21.25339,-37.23965 7.06845,-12.86988 10.34699,-17.90527 11.91423,-18.29862 1.18923,-0.29848 5.52716,-0.40831 9.63985,-0.24407 5.8782,0.23475 7.54232,0.63803 7.78012,1.88542 0.16637,0.87274 -3.72238,8.74774 -8.64168,17.5 -4.91931,8.75226 -13.44527,24.0132 -18.94659,33.9132 l -10.00239,18 -14.45137,0.27591 c -10.80854,0.20636 -14.69748,-0.0457 -15.42774,-1 z m 201.35518,0.55742 c -0.3667,-0.36666 -0.6667,-16.10083 -0.6667,-34.96481 v -34.29815 l 2.2048,-1.17998 c 1.6288,-0.87172 9.9233,-1.01818 31.75,-0.56064 30.8656,0.64702 37.9504,1.49628 45.6985,5.4779 13.3683,6.86977 16.5374,25.15757 6.209,35.8297 -2.7285,2.81937 -5.0868,4.12448 -12.702,7.0294 -2.2048,0.84106 -1.7004,1.48699 8.75,11.20497 6.0993,5.67185 11.0897,10.72102 11.0897,11.22037 0,0.49935 -5.4766,0.90791 -12.1701,0.90791 h -12.1701 l -10.5799,-11.00246 -10.5799,-11.00245 -12.1826,0.002 c -14.2315,0.003 -13.6005,-0.55735 -13.2985,11.80648 0.1034,4.23279 0.1415,8.25848 0.085,8.94598 -0.076,0.91268 -2.892,1.25 -10.4368,1.25 -5.6834,0 -10.6334,-0.3 -11,-0.66667 z m 59.519,-35.36816 c 4.9019,-1.36145 8.8143,-6.08512 8.8143,-10.6419 0,-2.65334 -0.8157,-4.33893 -3.3035,-6.82676 -4.0962,-4.09618 -8.3415,-4.73273 -28.6965,-4.30278 l -14.5,0.30627 -0.3206,6 c -0.1763,3.3 -0.031,8.3625 0.322,11.25 l 0.6425,5.25 16.6781,-0.006 c 9.1729,-0.003 18.3366,-0.46623 20.3637,-1.02925 z"
       id="path4" />
    <path
       style="fill:#717886"
       d="m 406.96715,547.48401 c -0.39805,-0.64407 4.59345,-6.19879 11.90652,-13.25 51.32107,-49.48343 72.34689,-70.27041 71.95397,-71.13664 -0.25057,-0.55241 -17.28805,-14.95439 -37.86105,-32.00439 -20.573,-17.05 -37.41145,-31.49839 -37.41877,-32.10754 -0.0215,-1.78344 10.27705,-2.37821 36.73593,-2.12161 29.19391,0.28312 28.64256,0.12152 42.25075,12.38374 4.675,4.2126 15.7,14.13523 24.5,22.05029 8.8,7.91505 17.0125,15.78598 18.25,17.49095 2.05585,2.83244 2.24694,4.18737 2.21456,15.70205 -0.0227,8.06123 -0.47307,13.32278 -1.25,14.60212 -0.66801,1.1 -16.54788,17.1875 -35.28861,35.75 l -34.07405,33.75 h -30.61693 c -21.33833,0 -30.82464,-0.33608 -31.30232,-1.10897 z m 174.06735,-1.5494 c -1.65,-1.42733 -10.75666,-9.59066 -20.23701,-18.14072 -13.52241,-12.19546 -17.35905,-16.2088 -17.80328,-18.62323 -0.31145,-1.69272 -0.42979,-16.98313 -0.26299,-33.97867 l 0.30328,-30.901 23.41387,-22.849 c 22.00581,-21.47491 23.6367,-22.84901 27.11916,-22.84901 3.5048,0 3.73882,0.2029 4.32512,3.75 1.10643,6.69386 0.73709,142.20352 -0.39333,144.31574 -0.85623,1.59987 -2.1096,1.9288 -7.25,1.90266 -5.22648,-0.0266 -6.69191,-0.44431 -9.21482,-2.62677 z m 364.03892,-29.38299 c -23.33332,-3.67725 -35.53921,-12.86758 -39.51308,-29.75108 -1.66582,-7.07743 -0.59758,-14.74395 3.07978,-22.10301 5.39247,-10.79129 15.63986,-17.4496 31.82278,-20.67706 12.88695,-2.57012 36.69796,-1.60281 47.63902,1.93532 18.99918,6.14396 28.23448,18.22323 27.22788,35.61237 -0.9961,17.20756 -11.1764,27.87928 -31.57145,33.09545 -8.88868,2.27334 -29.77252,3.29257 -38.68493,1.88801 z m 32.58419,-14.90351 c 9.73157,-3.64105 14.89505,-11.20922 14.85493,-21.77301 -0.0383,-10.08397 -4.67442,-16.96175 -14.47804,-21.47851 -4.43683,-2.04414 -6.52057,-2.30361 -18.5,-2.30361 -11.62742,0 -14.12419,0.29172 -18,2.10308 -8.78027,4.10347 -13.93866,11.85237 -13.97804,20.9977 -0.055,12.76595 6.42866,20.38351 20.47804,24.0595 7.08468,1.8537 22.62983,1.01137 29.62311,-1.60515 z m -330.66809,11.68825 c -0.26522,-0.69114 -0.36359,-16.55364 -0.21862,-35.25 l 0.2636,-33.99338 9.91736,-0.28823 c 7.26032,-0.21101 10.13633,0.0569 10.73468,1 1.23202,1.94183 1.05656,65.52993 -0.18722,67.85397 -0.91189,1.70388 -2.16623,1.93426 -10.53139,1.93426 -6.70116,0 -9.63813,-0.36986 -9.97841,-1.25662 z m 48.42427,-13.84995 c -22.00911,-18.09004 -23.88955,-19.81167 -23.84413,-21.83052 0.0193,-0.8596 9.19807,-8.87541 20.39718,-17.81291 l 20.36202,-16.25 h 13.18615 c 9.44448,0 13.07807,0.32427 12.80524,1.14275 -0.20951,0.62852 -9.13161,7.95796 -19.82689,16.28764 -10.69528,8.32969 -19.55222,15.80295 -19.68209,16.60725 -0.12987,0.8043 1.513,2.81236 3.65081,4.46236 22.14421,17.0913 38.07242,30.14675 38.07242,31.20583 0,0.99437 -3.0974,1.29417 -13.37071,1.29417 h -13.37071 z m 62.17492,13.20787 c -1.26143,-2.35701 -1.45454,-65.92205 -0.20625,-67.88953 0.59835,-0.94309 3.47436,-1.21101 10.73468,-1 l 9.91736,0.28823 v 35 35 l -9.69579,0.28556 c -8.78475,0.25872 -9.79484,0.10047 -10.75,-1.68426 z m 74.68345,0.1487 c -2.47406,-2.75365 -36.73766,-65.83495 -36.73766,-67.63619 0,-1.38579 1.53103,-1.61381 10.83607,-1.61381 h 10.83608 l 15.43921,27.75 c 8.49156,15.2625 15.83429,27.67511 16.31718,27.58358 0.48288,-0.0915 7.64743,-12.57903 15.9212,-27.75 l 15.04324,-27.58358 h 9.80351 c 5.56567,0 9.80351,0.4131 9.80351,0.95565 0,1.25714 -35.85281,66.02589 -37.80441,68.29435 -1.29231,1.50212 -3.37388,1.75 -14.69559,1.75 -11.29628,0 -13.41577,-0.25125 -14.76234,-1.75 z m 201.31654,-0.1487 c -1.2751,-2.38265 -1.4476,-65.93249 -0.1843,-67.92498 0.6767,-1.06737 7.2087,-1.24916 33.7347,-0.93886 28.2314,0.33026 33.6712,0.6391 38.3673,2.17832 10.958,3.59163 16.7635,9.78406 18.5697,19.8072 1.8491,10.26138 -5.2471,21.23526 -15.4171,23.84176 -2.8572,0.73227 -5.0665,1.83486 -4.9097,2.45021 0.1569,0.61535 4.8977,5.32976 10.5352,10.47646 5.6375,5.14671 10.25,9.95411 10.25,10.68312 0,1.0222 -2.5779,1.32547 -11.2671,1.32547 h -11.267 l -10.983,-11.02438 -10.9829,-11.02439 -12.5,0.27439 -12.5,0.27438 -0.5,10.5 -0.5,10.5 -9.6958,0.28556 c -8.7847,0.25872 -9.7948,0.10047 -10.75,-1.68426 z m 61.3472,-34.49567 c 1.8355,-0.7669 4.071,-2.44203 4.9679,-3.7225 2.0653,-2.94859 2.1016,-9.23483 0.071,-12.33352 -2.9932,-4.56856 -7.8477,-5.54961 -27.4605,-5.54961 h -17.9798 v 10.83333 c 0,5.95834 0.3,11.13334 0.6667,11.5 0.3666,0.36667 8.7061,0.66667 18.5321,0.66667 13.0166,0 18.7712,-0.37844 21.2026,-1.39437 z"
       id="path3" />
    <path
       style="fill:#112850"
       d="m 425.2625,546.59298 -16.77199,-0.5 41.77199,-40.42754 c 22.9746,-22.23515 41.86894,-41.13515 41.98743,-42 0.20207,-1.47497 -10.91188,-11.01509 -58.08222,-49.85728 -8.87326,-7.30665 -16.2914,-13.74373 -16.48475,-14.30462 -0.23535,-0.68274 9.6801,-0.91912 30,-0.71518 26.57075,0.26667 30.78752,0.52359 33.85154,2.06249 3.22232,1.61842 27.99304,23.2636 47.75,41.72498 l 8.25,7.709 v 14.13959 14.13958 l -34.0995,33.76449 -34.09949,33.76449 -13.65051,0.5 c -7.50777,0.275 -21.1979,0.275 -30.4225,0 z M 564.06955,528.93427 544.5345,511.27556 v -33.12009 -33.12009 l 22.87825,-22.79937 c 20.42682,-20.35639 23.18596,-22.76421 25.75,-22.4712 l 2.87175,0.32817 0.25649,73.25 0.25649,73.25 h -6.47144 -6.47143 z M 939.0345,514.0191 c -15.73819,-3.45018 -26.35852,-11.12591 -30.46641,-22.01927 -3.06291,-8.12228 -2.54342,-19.62525 1.21802,-26.97031 6.10843,-11.92808 18.09464,-18.30853 38.54784,-20.51963 24.69651,-2.66982 45.80282,2.0436 56.73705,12.67042 6.6597,6.47252 8.8344,11.9826 8.8661,22.46454 0.022,7.35021 -0.364,9.34893 -2.7493,14.22425 -4.4162,9.02642 -13.44007,15.6465 -26.20775,19.22648 -8.62574,2.41861 -36.564,2.98017 -45.94555,0.92352 z m 31.95752,-9.00869 c 8.94932,-1.14748 16.87239,-6.43505 20.85436,-13.91743 3.00119,-5.63943 2.97345,-16.39906 -0.0571,-22.14255 -5.45774,-10.34353 -15.79613,-14.88211 -33.75479,-14.81846 -13.56893,0.0481 -19.23841,2.15172 -25.96617,9.63461 -9.89379,11.00427 -7.76116,28.60763 4.39551,36.2818 8.71926,5.50422 18.89478,6.96654 34.52818,4.96203 z m -323.22082,-26.16743 0.2633,-33.75 9.25,-0.28753 9.25,-0.28752 v 34.03752 34.03753 h -9.5133 -9.5133 z m 53.2633,23.59583 c -6.6,-5.50432 -15.79621,-13.19839 -20.43603,-17.09793 l -8.43602,-7.09009 4.43602,-3.93817 c 3.77948,-3.35531 13.87714,-11.53421 32.60433,-26.40884 4.15192,-3.2978 4.21182,-3.3108 15.25,-3.3108 6.09493,0 11.07463,0.3375 11.06598,0.75 -0.009,0.4125 -8.7582,7.5 -19.44344,15.75 -10.68524,8.25 -19.45317,15.67825 -19.48428,16.50723 -0.0435,1.15975 24.19944,21.19478 40.44344,33.42353 1.81399,1.3656 0.79096,1.50179 -11,1.46428 l -13,-0.0414 z m 57.73665,-23.55813 0.26335,-33.7877 h 9 9 v 33.5 33.5 l -9.26335,0.2877 -9.26334,0.2877 z m 73.24804,31.32927 c -4.16349,-6.35428 -35.21964,-64.20821 -34.82077,-64.86697 0.24976,-0.4125 4.63292,-0.75 9.74036,-0.75 h 9.28624 l 15.35578,27.75 c 8.44568,15.2625 15.82781,28.07123 16.40474,28.46384 0.57693,0.39261 1.55883,0.16761 2.182,-0.5 0.62317,-0.66761 7.80017,-13.47634 15.94887,-28.46384 l 14.81583,-27.25 h 8.30113 c 4.56562,0 8.30113,0.39543 8.30113,0.87873 0,0.4833 -8.2375,15.6708 -18.30555,33.75 l -18.30556,32.87127 -13.65308,0.27795 c -13.50726,0.27498 -13.67014,0.2519 -15.25112,-2.16098 z m 202.51531,-31.73127 v -34.11429 l 30.75,0.4594 c 33.8626,0.5059 41.339,1.51464 48.6721,6.56695 2.1572,1.48623 5.0038,4.72724 6.3258,7.20224 2.0259,3.7929 2.3506,5.61454 2.0663,11.59292 -0.2815,5.92076 -0.7983,7.69746 -3.1274,10.75105 -3.0106,3.94712 -6.67,6.1991 -13.0974,8.05998 -2.2431,0.64944 -4.1906,1.83673 -4.3279,2.63842 -0.1373,0.8017 4.513,5.73263 10.334,10.95763 l 10.5836,9.5 -10.2496,0.28675 -10.2496,0.28675 -11.1357,-10.98668 -11.1356,-10.98669 -11.9543,0.35985 c -6.5749,0.19791 -12.5168,0.40038 -13.2043,0.44993 -0.9149,0.0659 -1.25,2.90481 -1.25,10.59009 v 10.5 h -9.5 -9.5 z m 59.3237,1.51966 c 11.4894,-3.91481 12.7244,-17.2734 2.1118,-22.84082 -3.5752,-1.87553 -5.675,-2.06454 -22.9355,-2.06454 h -19 l -0.2834,11.94178 c -0.1559,6.56798 -0.058,12.53048 0.2186,13.25 0.7925,2.06509 33.6803,1.82894 39.8885,-0.28642 z"
       id="path2" />
  </g>
</svg>
