<?xml version="1.0" encoding="UTF-8" standalone="no"?>
<!-- Created with Inkscape (http://www.inkscape.org/) -->

<svg
   version="1.1"
   id="svg1"
   width="1536"
   height="1024"
   viewBox="0 0 1536 1024"
   sodipodi:docname="logo-kivor.svg"
   inkscape:version="1.4.2 (f4327f4, 2025-05-13)"
   xmlns:inkscape="http://www.inkscape.org/namespaces/inkscape"
   xmlns:sodipodi="http://sodipodi.sourceforge.net/DTD/sodipodi-0.dtd"
   xmlns="http://www.w3.org/2000/svg"
   xmlns:svg="http://www.w3.org/2000/svg">
  <defs
     id="defs1" />
  <sodipodi:namedview
     id="namedview1"
     pagecolor="#505050"
     bordercolor="#eeeeee"
     borderopacity="1"
     inkscape:showpageshadow="0"
     inkscape:pageopacity="0"
     inkscape:pagecheckerboard="0"
     inkscape:deskcolor="#505050"
     inkscape:zoom="0.83496094"
     inkscape:cx="768.29942"
     inkscape:cy="411.39649"
     inkscape:window-width="1920"
     inkscape:window-height="1057"
     inkscape:window-x="-8"
     inkscape:window-y="-8"
     inkscape:window-maximized="1"
     inkscape:current-layer="g1" />
  <g
     inkscape:groupmode="layer"
     inkscape:label="Image"
     id="g1">
    <path
       style="fill:#0c234b;stroke:none"
       d="m 394.17427,408.37188 c 5.01468,8.6682 17.22046,15.7262 25,22 16.91589,13.6418 33.62738,33.1109 53,43 -23.60834,32.0757 -63.03052,52.3922 -86,85 h 44 c 5.57935,0 13.89725,1.5236 19,-1.0277 8.96967,-4.4848 16.94574,-15.918 24,-22.9723 18.69366,-18.6936 56.19476,-41.8021 44.25772,-73 -4.35458,-11.3808 -22.43381,-21.9116 -31.25772,-30.0887 -7.57608,-7.0208 -16.17905,-17.3453 -26,-21.0964 -7.48102,-2.8574 -16.15067,-1.8149 -24,-1.8149 h -42 m 183,150 v -114 -26 c -0.006,-2.9143 0.65845,-7.836 -3.14813,-8.6273 -4.63874,-0.9643 -8.92481,3.7926 -11.85187,6.642 -7.76453,7.5584 -15.33789,15.3232 -23,22.9853 -4.80756,4.8076 -12.99432,10.4844 -15.39661,17 -2.75192,7.4639 -0.60339,19.0832 -0.60339,27 0,10.9349 -3.18759,27.7344 0.60339,38 2.08271,5.6398 9.10682,9.9694 13.39661,13.9144 13.17633,12.1173 21.58014,23.0856 40,23.0856 m 357,-104.5756 c -10.69751,1.4046 -21.21405,1.6449 -31,6.8997 -20.44653,10.9793 -24.97528,41.1913 -5.99615,55.9954 14.35943,11.2006 37.54461,12.4822 54.99615,10.395 11.92157,-1.4257 23.90674,-4.5343 32.9599,-12.8989 12.87286,-11.8937 12.82623,-34.1943 0.85565,-46.7222 -11.98303,-12.5409 -35.30719,-15.8366 -51.81555,-13.669 m -308,70.5756 h 21 v -70 l -19.39661,1.0278 -1.60339,17.9722 v 51 m 94,0 c -9.07019,-12.3148 -30.36383,-28.0391 -44,-35 v -2 l 29,-21.4243 13,-11.5757 c -7.50214,0 -17.87482,-1.861 -25,0.5888 -9.60437,3.3021 -19.14423,14.1019 -27,20.412 -3.14075,2.5227 -14.72876,9.3219 -14.07867,13.919 0.76727,5.4256 12.09143,11.6653 16.07867,14.8835 7.33899,5.9233 16.07922,16.4142 25,19.5972 7.56293,2.6985 18.99982,0.5995 27,0.5995 m 17,-70 v 70 h 21 l -1,-40 1,-29 -21,-1 m 38,0 c 3.98688,17.4236 18.13934,36.4858 27.00079,52 2.69043,4.7103 5.75702,14.0171 10.38965,16.9723 4.34558,2.7721 22.55976,2.5772 27.23071,0.4244 5.14216,-2.37 8.53772,-12.68 11.2284,-17.3967 9.43396,-16.5371 21.64551,-34.1256 28.15045,-52 l -18.62036,1.0278 -9.37885,14.9722 -22.00079,41 h -2 l -21.84955,-41 -9.3634,-14.9722 -20.78705,-1.0278 m 237.99993,0 v 70 h 21.0001 l -1,-21 c 6.7916,-1.6168 20.8682,-3.2676 27,0.6034 7.8396,4.9492 12.3239,15.0227 20.439,19.4082 6.0366,3.2624 17.7949,0.9884 24.561,0.9884 v -1 l -24,-22 c 21.5631,-2.7868 31.8694,-30.1438 10,-41.672 -7.4838,-3.945 -15.8505,-3.7216 -24,-4.4977 -17.8557,-1.7004 -36.0514,-0.8303 -54.0001,-0.8303 m -81.99993,11.2894 c 12.16943,-1.5853 28.22174,-0.1934 36.65973,9.7507 13.25934,15.6262 0.99597,37.4831 -17.65973,39.7755 -12.01196,1.476 -27.32135,1.8113 -36.81482,-7.1443 -17.26038,-16.2825 -2.07812,-39.7905 17.81482,-42.3819 m 103.00003,25.7106 -1,-25 c 11.6053,0 38.0499,-4.8042 46.3472,5.2246 5.2451,6.3397 1.8674,15.4167 -5.3511,18.2122 -11.4418,4.431 -27.8691,1.5632 -39.9961,1.5632 z"
       id="path1" />
  </g>
</svg>
